<svg xmlns="http://www.w3.org/2000/svg" width="933.333" height="933.333" preserveAspectRatio="xMidYMid meet" version="1.0" viewBox="0 0 700 700"><metadata>Created by potrace 1.14, written by Peter Selinger 2001-2017</metadata><g fill="#000" stroke="none"><path d="M3585 6470 c-142 -32 -252 -92 -347 -191 -165 -172 -245 -384 -253 -674 -7 -263 -18 -451 -29 -512 -3 -18 -8 -46 -11 -61 -10 -57 -94 -289 -130 -357 -51 -95 -134 -223 -213 -325 -36 -47 -69 -87 -72 -90 -6 -6 -60 -69 -121 -141 -60 -71 -235 -277 -262 -309 -12 -14 -40 -48 -62 -75 -21 -28 -42 -52 -45 -55 -3 -3 -24 -27 -45 -55 -22 -27 -43 -52 -46 -55 -12 -10 -217 -279 -271 -356 -85 -122 -263 -464 -331 -639 -85 -215 -101 -379 -47 -484 22 -45 58 -65 112 -64 63 1 111 43 179 153 232 379 331 501 570 706 106 91 139 121 270 250 l95 95 -3 -98 c-10 -398 -4 -535 32 -713 18 -91 30 -170 40 -280 4 -36 8 -81 10 -100 8 -69 16 -207 20 -305 2 -55 6 -111 9 -125 14 -61 18 -91 22 -177 3 -87 2 -95 -26 -149 -55 -103 -118 -161 -255 -234 -182 -97 -232 -163 -186 -248 28 -52 168 -91 326 -90 186 0 429 75 642 196 l98 55 107 -1 c78 -1 126 4 175 18 l68 19 51 -33 c28 -19 74 -46 102 -60 28 -14 53 -30 56 -35 5 -8 76 -33 201 -71 17 -5 46 -11 65 -14 19 -3 46 -8 59 -10 137 -28 363 -24 514 10 84 19 121 38 136 71 39 85 -21 141 -289 274 -402 198 -510 254 -510 261 0 5 11 30 24 56 92 182 208 527 281 832 36 154 81 376 90 445 2 11 6 39 9 62 8 48 10 65 26 188 6 50 13 101 15 115 2 14 4 44 4 67 l1 41 37 -31 c43 -37 87 -80 159 -157 29 -30 102 -102 164 -160 67 -62 161 -166 232 -255 281 -352 291 -364 368 -444 96 -99 182 -146 245 -134 50 10 101 73 128 160 46 144 43 189 -28 378 -37 100 -155 344 -214 443 -17 29 -31 55 -31 57 0 18 -335 530 -560 855 -105 152 -287 431 -350 535 -30 49 -65 101 -79 116 -32 33 -179 194 -227 246 l-34 38 6 235 c6 295 5 279 54 484 l41 173 29 1 c17 0 51 17 82 40 29 22 112 75 183 117 72 43 149 92 172 109 123 92 97 212 -65 293 -57 28 -58 28 -248 28 -121 0 -197 4 -205 11 -17 13 -139 63 -224 92 -169 57 -351 73 -490 42z" transform="translate(0.000000,700.000000) scale(0.100000,-0.100000)"/></g></svg>