<svg xmlns="http://www.w3.org/2000/svg" id="emoji" viewBox="0 0 72 72"><g id="color"><path fill="#D0CFCE" stroke="#D0CFCE" stroke-linecap="round" stroke-linejoin="round" stroke-miterlimit="10" stroke-width="2" d="M14.1961,35.6519c-0.2003-7.666,5.5788-16.3843,12.4516-16.6004c6.9307-0.218,14.4147,10.2522,12.4099,17.1736H35.875 c0,0,0.7894-7.1326-2.2339-10.144c-1.5425-1.5365-4.5505-4.3006-7.4804-3.869c-1.9766,0.2912-6.3916,2.8073-7.3105,4.5813 c-1.0274,1.9835-1.1693,8.8584-1.1693,8.8584H14.1961z"/><polygon fill="#FCEA2B" stroke="none" points="41.698 36.361 43.328 36.361 43.328 59.733 10.283 59.733 10.283 36.361 11.913 36.361"/><polygon fill="#F1B31C" stroke="none" points="42.941 36.532 26.619 59.578 43.409 59.578"/><path fill="#F4AA41" stroke="none" d="M55.9395,32.5829c3.5838-1.818,6.0691-5.786,6.0691-10.3885c0-6.3218-4.689-11.4467-10.4731-11.4467 s-10.4731,5.1249-10.4731,11.4467c0,5.1112,3.1002,10.0458,7.3573,10.6187"/><polyline fill="#F4AA41" stroke="#F4AA41" stroke-linecap="round" stroke-linejoin="round" stroke-miterlimit="10" stroke-width="2" points="56.027 32.349 56.016 35.426 56.172 56.151 51.67 60.652 47.01 55.992 49.893 53.109 46.736 49.952 50.377 46.31 47.237 43.17 47.251 40.194 49.96 37.484 48.719 36.243 48.719 32.349"/><polygon fill="#E27022" stroke="none" points="53.544 57.09 54.744 55.888 54.525 36.061 53.311 36.074"/><ellipse cx="51.535" cy="18.109" fill="#E27022" stroke="none" rx="3.521" ry="3.521" transform="matrix(0.7071 -0.7071 0.7071 0.7071 2.2893 41.7451)"/></g><g id="line"><path fill="none" stroke="#000" stroke-linecap="round" stroke-linejoin="round" stroke-miterlimit="10" stroke-width="2" d="M39.4673,33.4202c0.5811-8.0338-5.889-14.5868-12.8196-14.3688c-6.8728,0.2162-12.4516,7.0826-12.4516,14.3688"/><polygon fill="none" stroke="#000" stroke-linecap="round" stroke-linejoin="round" stroke-miterlimit="10" stroke-width="2" points="41.698 36.321 43.328 36.321 43.328 59.692 10.283 59.692 10.283 36.321 11.913 36.321"/><path fill="none" stroke="#000" stroke-linecap="round" stroke-linejoin="round" stroke-miterlimit="10" stroke-width="2" d="M17.8248,33.4202c0-5.5092,3.979-10.701,8.8809-10.8645c4.9432-0.1648,9.5578,4.79,9.1434,10.8645"/><path fill="none" stroke="#000" stroke-linecap="round" stroke-linejoin="round" stroke-miterlimit="10" stroke-width="2" d="M35.875,34.2898"/><polyline fill="none" stroke="#000" stroke-linecap="round" stroke-linejoin="round" stroke-miterlimit="10" stroke-width="2" points="56.025 36.026 56.282 56.472 51.721 61.032 46.955 56.267 49.876 53.346 46.648 50.117 50.337 46.428 47.126 43.217 47.126 40.187 49.871 37.442 48.602 36.173"/><ellipse cx="51.535" cy="18.109" fill="none" stroke="#000" stroke-linecap="round" stroke-linejoin="round" stroke-miterlimit="10" stroke-width="2" rx="3.521" ry="3.521" transform="matrix(0.7071 -0.7071 0.7071 0.7071 2.2893 41.7451)"/><path fill="none" stroke="#000" stroke-linecap="round" stroke-linejoin="round" stroke-miterlimit="10" stroke-width="2" d="M56.0171,31.6362c3.5704-1.7692,6.0267-5.5901,5.9932-10c-0.0461-6.0573-4.7723-10.9321-10.5563-10.8882 c-5.784,0.044-10.4355,4.9901-10.3894,11.0475c0.0372,4.8974,3.1337,9.0217,7.3751,10.3985"/></g></svg>